# xmcd CD database file
#
# Track frame offsets:
#	187
#	19575
#	36587
#	56037
#
# Disc length: 971 seconds
#
# Revision: 0
# Processed by: cddbd v1.5.1PL0 Copyright (c) Steve Scherf et al.
# Submitted via: CDex 1.51
#
DISCID=3003c904
DTITLE=WINK - トゥインクル トゥインクル
DYEAR=1994
DGENRE=JPop
TTITLE0=トゥインクル トゥインクル
TTITLE1=Tasty
TTITLE2=トゥインクル トゥインクル(カラオケ)
TTITLE3=Tasty(カラオケ)
EXTD=YEAR: 1994
EXTT0=
EXTT1=
EXTT2=
EXTT3=
PLAYORDER=
